<svg width="1000" height="300" fill="none" xmlns="http://www.w3.org/2000/svg">
  <g clip-path="url(#clip0)">
    <path d="M48.755-101.68v-9.408h9.472v9.408h-9.472zm4.736-.384c.618 0 1.194-.107 1.728-.32a4.039 4.039 0 001.376-.896c.384-.384.682-.843.896-1.376a4.24 4.24 0 00.352-1.728 4.24 4.24 0 00-.352-1.728 4.047 4.047 0 00-.896-1.376 4.039 4.039 0 00-1.376-.896 4.616 4.616 0 00-1.728-.32c-.619 0-1.195.107-1.728.32a4.04 4.04 0 00-1.376.896 4.471 4.471 0 00-.928 1.376 4.608 4.608 0 00-.32 1.728c0 .619.106 1.195.32 1.728.234.533.544.992.928 1.376a4.04 4.04 0 001.376.896c.533.213 1.109.32 1.728.32zm71.763.864v-14.72h14.848v14.72h-14.848zm7.424-.128c1.067 0 2.048-.181 2.944-.544a6.853 6.853 0 002.304-1.504 7.297 7.297 0 001.504-2.304 7.596 7.596 0 00.544-2.88 7.357 7.357 0 00-.544-2.848 6.853 6.853 0 00-1.504-2.304 6.626 6.626 0 00-2.304-1.536c-.896-.363-1.877-.544-2.944-.544s-2.048.181-2.944.544a6.626 6.626 0 00-2.304 1.536 6.853 6.853 0 00-1.504 2.304 7.357 7.357 0 00-.544 2.848c0 1.024.181 1.984.544 2.88a7.297 7.297 0 001.504 2.304 6.853 6.853 0 002.304 1.504c.896.363 1.877.544 2.944.544zm0-1.568a5.82 5.82 0 01-2.208-.416 5.33 5.33 0 01-1.728-1.152 5.92 5.92 0 01-1.12-1.792 6.238 6.238 0 01-.416-2.304c0-.832.139-1.589.416-2.272a5.447 5.447 0 011.12-1.792 5.099 5.099 0 011.728-1.184 5.82 5.82 0 012.208-.416c.789 0 1.515.139 2.176.416a4.704 4.704 0 011.728 1.184 5.178 5.178 0 011.152 1.792c.277.683.416 1.44.416 2.272 0 .832-.139 1.6-.416 2.304a5.602 5.602 0 01-1.152 1.792 4.898 4.898 0 01-1.728 1.152 5.577 5.577 0 01-2.176.416zM202.266-85.2V-130h9.6v22.4h9.6v22.4h-19.2zm80.819-11.712v-12.672h1.632c0 1.536.277 2.976.832 4.32a11.608 11.608 0 002.368 3.52 11.608 11.608 0 003.52 2.368c1.344.555 2.784.832 4.32.832 1.536 0 2.965-.277 4.288-.832a11.117 11.117 0 003.52-2.368 10.894 10.894 0 002.368-3.52c.576-1.344.864-2.784.864-4.32h1.632v12.672h-25.344zm12.672-3.424a9.345 9.345 0 01-3.616-.704 9.945 9.945 0 01-2.944-1.984 9.945 9.945 0 01-1.984-2.944 9.345 9.345 0 01-.704-3.616h18.496a8.98 8.98 0 01-.736 3.616 9.19 9.19 0 01-1.984 2.944 9.421 9.421 0 01-2.944 1.984c-1.109.469-2.304.704-3.584.704zm74.29 15.136V-130h9.6v22.4h9.6v22.4h-19.2zm98.387-22.4h-9.6v22.4h-9.6V-130h19.2v22.4zm59.988 22.4V-130h9.6v22.4h9.6v22.4h-19.2zm99.635-23.648h-12.096V-85.2h-2.496v-26.144h14.592v2.496zm0 4.992h-7.104V-85.2h-2.496v-21.152h9.6v2.496zm71.476 5.664c-1.536 0-2.976-.288-4.32-.864a11.608 11.608 0 01-3.52-2.368 11.233 11.233 0 01-2.4-3.552c-.576-1.344-.864-2.784-.864-4.32 0-1.536.288-2.965.864-4.288a11.501 11.501 0 012.368-3.552 11.233 11.233 0 013.552-2.4c1.344-.576 2.784-.864 4.32-.864a10.866 10.866 0 017.84 3.264 10.866 10.866 0 013.264 7.84c0 1.536-.288 2.976-.864 4.32a10.806 10.806 0 01-2.368 3.552 11.117 11.117 0 01-3.52 2.368c-1.344.576-2.795.864-4.352.864zm-4.16-8.64c.683 0 1.259-.245 1.728-.736.491-.491.736-1.067.736-1.728 0-.683-.245-1.259-.736-1.728a2.296 2.296 0 00-1.728-.736c-.661 0-1.237.245-1.728.736a2.296 2.296 0 00-.736 1.728c0 .661.245 1.237.736 1.728.491.491 1.067.736 1.728.736zm8.32 0c.683 0 1.259-.245 1.728-.736.491-.491.736-1.067.736-1.728 0-.683-.245-1.259-.736-1.728a2.296 2.296 0 00-1.728-.736c-.661 0-1.237.245-1.728.736a2.296 2.296 0 00-.736 1.728c0 .661.245 1.237.736 1.728.491.491 1.067.736 1.728.736zM781.866-130h9.6v22.4h-9.6V-130zm-9.6 22.4h9.6v22.4h-9.6v-22.4zm91.923 9.408c-1.536 0-2.976-.288-4.32-.864a11.608 11.608 0 01-3.52-2.368 11.233 11.233 0 01-2.4-3.552c-.576-1.344-.864-2.784-.864-4.32 0-1.536.288-2.965.864-4.288a11.501 11.501 0 012.368-3.552 11.233 11.233 0 013.552-2.4c1.344-.576 2.784-.864 4.32-.864a10.866 10.866 0 017.84 3.264 10.866 10.866 0 013.264 7.84c0 1.536-.288 2.976-.864 4.32a11.233 11.233 0 01-2.4 3.552 11.117 11.117 0 01-3.52 2.368c-1.344.576-2.784.864-4.32.864zm0-2.304c1.237 0 2.389-.224 3.456-.672a8.759 8.759 0 002.784-1.92 8.816 8.816 0 001.888-2.784 8.753 8.753 0 00.672-3.424 8.493 8.493 0 00-.704-3.456 8.348 8.348 0 00-1.888-2.784 8.711 8.711 0 00-2.816-1.888c-1.045-.448-2.176-.672-3.392-.672a8.493 8.493 0 00-3.456.704 8.711 8.711 0 00-2.816 1.888 8.988 8.988 0 00-1.856 2.816c-.448 1.045-.672 2.176-.672 3.392 0 1.237.224 2.389.672 3.456a9.153 9.153 0 001.92 2.816 9.102 9.102 0 002.784 1.856 8.753 8.753 0 003.424.672zm4.16-6.336a2.421 2.421 0 01-1.728-.704 2.4 2.4 0 01-.736-1.76c0-.683.245-1.259.736-1.728.491-.491 1.067-.736 1.728-.736.683 0 1.259.245 1.728.736.491.469.736 1.045.736 1.728 0 .661-.245 1.237-.736 1.728a2.296 2.296 0 01-1.728.736zM950.266-85.2h-2.496v-23.648h-12.096v-2.496h14.592V-85.2zm-4.992 0h-2.496v-18.656h-7.104v-2.496h9.6V-85.2zm-913.243 65v-22.4h9.6v22.4h-9.6zm80.82-12.672v-23.424h23.424v23.424h-23.424zm21.984-2.304v-5.696l-13.92-13.984h-5.728l19.648 19.68zm0-7.712v-5.824l-6.112-6.144h-5.76l11.872 11.968zm0-7.872v-4.096h-4.096l4.096 4.096zm-6.944 16.448h5.728l-19.328-19.36v5.696l13.6 13.664zm-7.52 0h5.472L114.291-45.96v5.504l6.08 6.144zm-6.08 0h4.032l-4.032-4.096v4.096zM197.906-20.2v-22.4h9.6v22.4h-9.6zm91.924-12.992c-1.536 0-2.976-.288-4.32-.864a11.614 11.614 0 01-3.52-2.368 11.233 11.233 0 01-2.4-3.552c-.576-1.344-.864-2.784-.864-4.32 0-1.536.288-2.965.864-4.288a11.501 11.501 0 012.368-3.552 11.233 11.233 0 013.552-2.4c1.344-.576 2.784-.864 4.32-.864a10.866 10.866 0 017.84 3.264 10.863 10.863 0 012.4 3.52c.576 1.344.864 2.784.864 4.32 0 1.536-.288 2.976-.864 4.32a10.806 10.806 0 01-2.368 3.552 11.122 11.122 0 01-3.52 2.368c-1.344.576-2.795.864-4.352.864zm-4.16-8.64a2.3 2.3 0 001.728-.736c.49-.49.736-1.067.736-1.728a2.3 2.3 0 00-.736-1.728 2.3 2.3 0 00-1.728-.736c-.662 0-1.238.245-1.728.736a2.297 2.297 0 00-.736 1.728c0 .661.245 1.237.736 1.728.49.49 1.066.736 1.728.736zm8.32 0a2.3 2.3 0 001.728-.736c.49-.49.736-1.067.736-1.728a2.3 2.3 0 00-.736-1.728 2.3 2.3 0 00-1.728-.736c-.662 0-1.238.245-1.728.736a2.297 2.297 0 00-.736 1.728c0 .661.245 1.237.736 1.728.49.49 1.066.736 1.728.736zm70.205 8.96v-23.424h23.424v23.424h-23.424zm21.984-2.304v-5.696l-13.92-13.984h-5.728l19.648 19.68zm0-7.712v-5.824l-6.112-6.144h-5.76l11.872 11.968zm0-7.872v-4.096h-4.096l4.096 4.096zm-6.944 16.448h5.728l-19.328-19.36v5.696l13.6 13.664zm-7.52 0h5.472L365.635-45.96v5.504l6.08 6.144zm-6.08 0h4.032l-4.032-4.096v4.096zm88.479-2.368v-9.408h9.472v9.408h-9.472zm4.736-.384c.619 0 1.195-.107 1.728-.32a4.047 4.047 0 001.376-.896 4.04 4.04 0 00.896-1.376c.235-.533.352-1.11.352-1.728 0-.619-.117-1.195-.352-1.728a4.04 4.04 0 00-.896-1.376 4.047 4.047 0 00-1.376-.896 4.608 4.608 0 00-1.728-.32c-.619 0-1.195.107-1.728.32a4.047 4.047 0 00-1.376.896 4.473 4.473 0 00-.928 1.376 4.616 4.616 0 00-.32 1.728c0 .619.107 1.195.32 1.728.235.533.544.992.928 1.376.384.384.843.683 1.376.896.533.213 1.109.32 1.728.32zm71.22 4.192v-23.424h23.424v23.424H530.07zm11.744-20.288l1.664-1.696h-3.296l1.632 1.696zm-3.872 3.872l2.848-2.848-2.656-2.72h-.416l-2.688 2.688 2.912 2.88zm-3.904-3.904l1.632-1.664h-3.264l1.632 1.664zm11.648 3.904l2.88-2.88-2.624-2.688h-.448l-2.656 2.72 2.848 2.848zm3.904-3.904l1.632-1.664h-3.264l1.632 1.664zm-18.08 2.496l1.504-1.472-1.504-1.504v2.976zm20.544-.064v-2.848l-1.408 1.44 1.408 1.408zm-17.984 5.344l2.848-2.848-2.88-2.848-2.528 2.496v.64l2.56 2.56zm15.456 0l2.528-2.496v-.8l-2.464-2.4-2.88 2.88 2.816 2.816zm-7.712 0l2.88-2.848-2.88-2.848-2.848 2.848 2.848 2.848zm-3.872 3.872l2.848-2.848-2.848-2.848-2.848 2.848 2.848 2.848zm7.744 0l2.848-2.848-2.848-2.816-2.848 2.848 2.848 2.816zm-14.176-1.28l1.536-1.568-1.536-1.568v3.136zm20.544-.064v-2.976l-1.504 1.472 1.504 1.504zm-17.856 5.12l2.72-2.752-2.848-2.848-2.56 2.592v.32l2.688 2.688zm15.264 0l2.592-2.624v-.48l-2.528-2.496-2.816 2.848 2.752 2.752zm-7.648.16l2.88-2.912-2.88-2.816-2.848 2.88 2.848 2.848zm3.296 3.296h.928l2.4-2.4-2.752-2.784-2.848 2.912 2.272 2.272zm-7.52 0h.928l2.272-2.272-2.848-2.88-2.752 2.752 2.4 2.4zm-6.08-.8l1.664-1.632-1.664-1.664v3.296zm20.544-.064v-3.104l-1.568 1.568 1.568 1.536zm-3.968.864h2.752l-1.376-1.376-1.376 1.376zm-15.264 0h2.72l-1.344-1.376-1.376 1.376zm7.744 0h2.496l-1.248-1.248-1.248 1.248zm76.191 1.44v-23.424h23.424v23.424h-23.424zm1.44-10.016l11.872-11.968h-5.76l-6.112 6.144v5.824zm0 7.712l19.648-19.68h-5.728l-13.92 13.984v5.696zm0-15.584l4.096-4.096h-4.096v4.096zm1.216 16.448h5.728l13.6-13.664v-5.696l-19.328 19.36zm7.776 0h5.472l6.08-6.144v-5.504l-11.552 11.648zm7.52 0h4.032v-4.096l-4.032 4.096zM711.413-20.2v-22.4h9.6v22.4h-9.6zm82.931 0h-2.496v-23.648h-12.096v-2.496h14.592V-20.2zm-4.992 0h-2.496v-18.656h-7.104v-2.496h9.6V-20.2zm72.468-24.384v-12.672h25.344v12.672h-1.632c0-1.536-.288-2.965-.864-4.288a10.458 10.458 0 00-2.368-3.52 10.457 10.457 0 00-3.52-2.368c-1.323-.576-2.752-.864-4.288-.864-1.536 0-2.976.288-4.32.864a10.889 10.889 0 00-3.52 2.368 11.113 11.113 0 00-2.368 3.52c-.555 1.323-.832 2.752-.832 4.288h-1.632zm3.424 0c0-1.28.234-2.475.704-3.584a9.408 9.408 0 011.984-2.944 9.179 9.179 0 012.944-1.984 8.982 8.982 0 013.616-.736c1.28 0 2.474.245 3.584.736a8.753 8.753 0 012.944 1.984 8.76 8.76 0 011.984 2.944 8.77 8.77 0 01.736 3.584h-18.496zM948.781-20.2v-5.6h19.2v5.6h-19.2zM21.741 22.4V0h9.6v22.4h-9.6zm79.187 22.4V22.4h9.6v22.4h-9.6zm90.036-23.648h-12.096V44.8h-2.496V18.656h14.592v2.496zm0 4.992h-7.104V44.8h-2.496V23.648h9.6v2.496zM263.047 44.8h-2.496V21.152h-12.096v-2.496h14.592V44.8zm-4.992 0h-2.496V26.144h-7.104v-2.496h9.6V44.8zm83.572-12.992c-1.536 0-2.976-.288-4.32-.864a11.614 11.614 0 01-3.52-2.368 11.233 11.233 0 01-2.4-3.552c-.576-1.344-.864-2.784-.864-4.32 0-1.536.288-2.965.864-4.288a11.501 11.501 0 012.368-3.552 11.233 11.233 0 013.552-2.4c1.344-.576 2.784-.864 4.32-.864a10.866 10.866 0 017.84 3.264 10.863 10.863 0 012.4 3.52c.576 1.344.864 2.784.864 4.32 0 1.536-.288 2.976-.864 4.32a10.806 10.806 0 01-2.368 3.552 11.122 11.122 0 01-3.52 2.368c-1.344.576-2.795.864-4.352.864zm-4.16-8.64a2.3 2.3 0 001.728-.736c.49-.49.736-1.067.736-1.728a2.3 2.3 0 00-.736-1.728 2.3 2.3 0 00-1.728-.736c-.662 0-1.238.245-1.728.736a2.297 2.297 0 00-.736 1.728c0 .661.245 1.237.736 1.728.49.49 1.066.736 1.728.736zm8.32 0a2.3 2.3 0 001.728-.736c.49-.49.736-1.067.736-1.728a2.3 2.3 0 00-.736-1.728 2.3 2.3 0 00-1.728-.736c-.662 0-1.238.245-1.728.736a2.297 2.297 0 00-.736 1.728c0 .661.245 1.237.736 1.728.49.49 1.066.736 1.728.736zM423.959 44.8V22.4h9.6v22.4h-9.6zm69.588 0V22.4h19.2v22.4h-19.2zm77.939-23.648v-2.496h21.696v2.496h-21.696zm21.696 4.992h-7.104V44.8h-2.496V23.648h9.6v2.496zM581.086 44.8h-2.496V26.144h-7.104v-2.496h9.6V44.8zm70.836-39.2V0h19.2v5.6h-19.2zm92.531 39.2h-2.496V21.152h-12.096v-2.496h14.592V44.8zm-4.992 0h-2.496V26.144h-7.104v-2.496h9.6V44.8zm75.7-16.48v-9.408h9.472v9.408h-9.472zm4.736-.384c.619 0 1.195-.107 1.728-.32a4.047 4.047 0 001.376-.896 4.04 4.04 0 00.896-1.376c.235-.533.352-1.11.352-1.728 0-.619-.117-1.195-.352-1.728a4.04 4.04 0 00-.896-1.376 4.047 4.047 0 00-1.376-.896 4.608 4.608 0 00-1.728-.32c-.619 0-1.195.107-1.728.32a4.047 4.047 0 00-1.376.896 4.473 4.473 0 00-.928 1.376 4.616 4.616 0 00-.32 1.728c0 .619.107 1.195.32 1.728.235.533.544.992.928 1.376.384.384.843.683 1.376.896.533.213 1.109.32 1.728.32zm71.763.864V14.08h14.848V28.8H891.66zm7.424-.128c1.067 0 2.048-.181 2.944-.544a6.849 6.849 0 002.304-1.504 7.287 7.287 0 001.504-2.304 7.596 7.596 0 00.544-2.88 7.356 7.356 0 00-.544-2.848 6.838 6.838 0 00-1.504-2.304 6.618 6.618 0 00-2.304-1.536c-.896-.363-1.877-.544-2.944-.544-1.066 0-2.048.181-2.944.544a6.618 6.618 0 00-2.304 1.536 6.853 6.853 0 00-1.504 2.304 7.375 7.375 0 00-.544 2.848c0 1.024.182 1.984.544 2.88a7.304 7.304 0 001.504 2.304 6.849 6.849 0 002.304 1.504c.896.363 1.878.544 2.944.544zm0-1.568a5.813 5.813 0 01-2.208-.416 5.339 5.339 0 01-1.728-1.152 5.943 5.943 0 01-1.12-1.792 6.238 6.238 0 01-.416-2.304c0-.832.139-1.59.416-2.272a5.46 5.46 0 011.12-1.792 5.103 5.103 0 011.728-1.184 5.813 5.813 0 012.208-.416c.79 0 1.515.139 2.176.416a4.707 4.707 0 011.728 1.184c.491.49.875 1.088 1.152 1.792.278.683.416 1.44.416 2.272 0 .832-.138 1.6-.416 2.304a5.606 5.606 0 01-1.152 1.792 4.906 4.906 0 01-1.728 1.152 5.568 5.568 0 01-2.176.416zM968.672 44.8V0h9.6v22.4h9.6v22.4h-19.2zM34.882 98.088V85.416h1.632c0 1.536.277 2.976.832 4.32a11.618 11.618 0 002.368 3.52 11.618 11.618 0 003.52 2.368c1.344.555 2.784.832 4.32.832 1.536 0 2.965-.277 4.288-.832a11.118 11.118 0 003.52-2.368 10.892 10.892 0 002.368-3.52c.576-1.344.864-2.784.864-4.32h1.632v12.672H34.882zm12.672-3.424a9.338 9.338 0 01-3.616-.704 9.94 9.94 0 01-2.944-1.984 9.94 9.94 0 01-1.984-2.944 9.338 9.338 0 01-.704-3.616h18.496a8.98 8.98 0 01-.736 3.616 9.19 9.19 0 01-1.984 2.944 9.42 9.42 0 01-2.944 1.984c-1.11.47-2.304.704-3.584.704zm74.29 15.136V65h9.6v22.4h9.6v22.4h-19.2zm99.635-23.648h-12.096V109.8h-2.496V83.656h14.592v2.496zm0 4.992h-7.104V109.8h-2.496V88.648h9.6v2.496zm71.476 5.664c-1.536 0-2.976-.288-4.32-.864a11.614 11.614 0 01-3.52-2.368 11.233 11.233 0 01-2.4-3.552c-.576-1.344-.864-2.784-.864-4.32 0-1.536.288-2.965.864-4.288a11.501 11.501 0 012.368-3.552 11.233 11.233 0 013.552-2.4c1.344-.576 2.784-.864 4.32-.864a10.866 10.866 0 017.84 3.264 10.863 10.863 0 012.4 3.52c.576 1.344.864 2.784.864 4.32 0 1.536-.288 2.976-.864 4.32a10.806 10.806 0 01-2.368 3.552 11.122 11.122 0 01-3.52 2.368c-1.344.576-2.795.864-4.352.864zm-4.16-8.64a2.3 2.3 0 001.728-.736c.49-.49.736-1.067.736-1.728a2.3 2.3 0 00-.736-1.728 2.3 2.3 0 00-1.728-.736c-.662 0-1.238.245-1.728.736a2.297 2.297 0 00-.736 1.728c0 .661.245 1.237.736 1.728.49.49 1.066.736 1.728.736zm8.32 0a2.3 2.3 0 001.728-.736c.49-.49.736-1.067.736-1.728a2.3 2.3 0 00-.736-1.728 2.3 2.3 0 00-1.728-.736c-.662 0-1.238.245-1.728.736a2.297 2.297 0 00-.736 1.728c0 .661.245 1.237.736 1.728.49.49 1.066.736 1.728.736zM375.288 65h9.6v22.4h-9.6V65zm-9.6 22.4h9.6v22.4h-9.6V87.4zm91.923 9.408c-1.536 0-2.976-.288-4.32-.864a11.614 11.614 0 01-3.52-2.368 11.233 11.233 0 01-2.4-3.552c-.576-1.344-.864-2.784-.864-4.32 0-1.536.288-2.965.864-4.288a11.501 11.501 0 012.368-3.552 11.233 11.233 0 013.552-2.4c1.344-.576 2.784-.864 4.32-.864a10.866 10.866 0 017.84 3.264 10.863 10.863 0 012.4 3.52c.576 1.344.864 2.784.864 4.32 0 1.536-.288 2.976-.864 4.32a11.233 11.233 0 01-2.4 3.552 11.122 11.122 0 01-3.52 2.368c-1.344.576-2.784.864-4.32.864zm0-2.304c1.237 0 2.389-.224 3.456-.672a8.768 8.768 0 002.784-1.92 8.81 8.81 0 001.888-2.784 8.752 8.752 0 00.672-3.424 8.49 8.49 0 00-.704-3.456 8.354 8.354 0 00-1.888-2.784 8.716 8.716 0 00-2.816-1.888c-1.045-.448-2.176-.672-3.392-.672a8.493 8.493 0 00-3.456.704 8.716 8.716 0 00-2.816 1.888 8.988 8.988 0 00-1.856 2.816c-.448 1.045-.672 2.176-.672 3.392 0 1.237.224 2.39.672 3.456a9.153 9.153 0 001.92 2.816 9.096 9.096 0 002.784 1.856 8.753 8.753 0 003.424.672zm4.16-6.336a2.42 2.42 0 01-1.728-.704 2.4 2.4 0 01-.736-1.76c0-.683.245-1.259.736-1.728.491-.49 1.067-.736 1.728-.736.683 0 1.259.245 1.728.736.491.47.736 1.045.736 1.728 0 .661-.245 1.237-.736 1.728a2.297 2.297 0 01-1.728.736zm81.917 21.632h-2.496V86.152h-12.096v-2.496h14.592V109.8zm-4.992 0H536.2V91.144h-7.104v-2.496h9.6V109.8zm70.835 0V87.4h9.6v22.4h-9.6zm80.82-12.672V73.704h23.424v23.424h-23.424zm21.984-2.304v-5.696l-13.92-13.984h-5.728l19.648 19.68zm0-7.712v-5.824l-6.112-6.144h-5.76l11.872 11.968zm0-7.872v-4.096h-4.096l4.096 4.096zm-6.944 16.448h5.728l-19.328-19.36v5.696l13.6 13.664zm-7.52 0h5.472L691.791 84.04v5.504l6.08 6.144zm-6.08 0h4.032l-4.032-4.096v4.096zm83.615 14.112V87.4h9.6v22.4h-9.6zm91.924-12.992c-1.536 0-2.976-.288-4.32-.864a11.614 11.614 0 01-3.52-2.368 11.233 11.233 0 01-2.4-3.552c-.576-1.344-.864-2.784-.864-4.32 0-1.536.288-2.965.864-4.288a11.501 11.501 0 012.368-3.552 11.233 11.233 0 013.552-2.4c1.344-.576 2.784-.864 4.32-.864a10.866 10.866 0 017.84 3.264 10.863 10.863 0 012.4 3.52c.576 1.344.864 2.784.864 4.32 0 1.536-.288 2.976-.864 4.32a10.806 10.806 0 01-2.368 3.552 11.122 11.122 0 01-3.52 2.368c-1.344.576-2.795.864-4.352.864zm-4.16-8.64a2.3 2.3 0 001.728-.736c.49-.49.736-1.067.736-1.728a2.3 2.3 0 00-.736-1.728 2.3 2.3 0 00-1.728-.736c-.662 0-1.238.245-1.728.736a2.297 2.297 0 00-.736 1.728c0 .661.245 1.237.736 1.728.49.49 1.066.736 1.728.736zm8.32 0a2.3 2.3 0 001.728-.736c.49-.49.736-1.067.736-1.728a2.3 2.3 0 00-.736-1.728 2.3 2.3 0 00-1.728-.736c-.662 0-1.238.245-1.728.736a2.297 2.297 0 00-.736 1.728c0 .661.245 1.237.736 1.728.49.49 1.066.736 1.728.736zm70.205 8.96V73.704h23.424v23.424h-23.424zm21.984-2.304v-5.696l-13.92-13.984h-5.728l19.648 19.68zm0-7.712v-5.824l-6.112-6.144h-5.76l11.872 11.968zm0-7.872v-4.096h-4.096l4.096 4.096zm-6.944 16.448h5.728l-19.328-19.36v5.696l13.6 13.664zm-7.52 0h5.472L943.135 84.04v5.504l6.08 6.144zm-6.08 0h4.032l-4.032-4.096v4.096zM43.785 158.32v-9.408h9.473v9.408h-9.472zm4.737-.384c.619 0 1.195-.107 1.728-.32a4.04 4.04 0 001.376-.896c.384-.384.683-.843.896-1.376a4.241 4.241 0 00.352-1.728c0-.619-.117-1.195-.352-1.728a4.049 4.049 0 00-.896-1.376 4.04 4.04 0 00-1.376-.896 4.617 4.617 0 00-1.728-.32c-.619 0-1.195.107-1.728.32a4.039 4.039 0 00-1.376.896 4.47 4.47 0 00-.928 1.376 4.606 4.606 0 00-.32 1.728c0 .619.106 1.195.32 1.728.234.533.544.992.928 1.376.384.384.843.683 1.376.896.533.213 1.11.32 1.728.32zm71.219 4.192v-23.424h23.424v23.424h-23.424zm11.744-20.288l1.664-1.696h-3.296l1.632 1.696zm-3.872 3.872l2.848-2.848-2.656-2.72h-.416l-2.688 2.688 2.912 2.88zm-3.904-3.904l1.632-1.664h-3.264l1.632 1.664zm11.648 3.904l2.88-2.88-2.624-2.688h-.448l-2.656 2.72 2.848 2.848zm3.904-3.904l1.632-1.664h-3.264l1.632 1.664zm-18.08 2.496l1.504-1.472-1.504-1.504v2.976zm20.544-.064v-2.848l-1.408 1.44 1.408 1.408zm-17.984 5.344l2.848-2.848-2.88-2.848-2.528 2.496v.64l2.56 2.56zm15.456 0l2.528-2.496v-.8l-2.464-2.4-2.88 2.88 2.816 2.816zm-7.712 0l2.88-2.848-2.88-2.848-2.848 2.848 2.848 2.848zm-3.872 3.872l2.848-2.848-2.848-2.848-2.848 2.848 2.848 2.848zm7.744 0l2.848-2.848-2.848-2.816-2.848 2.848 2.848 2.816zm-14.176-1.28l1.536-1.568-1.536-1.568v3.136zm20.544-.064v-2.976l-1.504 1.472 1.504 1.504zm-17.856 5.12l2.72-2.752-2.848-2.848-2.56 2.592v.32l2.688 2.688zm15.264 0l2.592-2.624v-.48l-2.528-2.496-2.816 2.848 2.752 2.752zm-7.648.16l2.88-2.912-2.88-2.816-2.848 2.88 2.848 2.848zm3.296 3.296h.928l2.4-2.4-2.752-2.784-2.848 2.912 2.272 2.272zm-7.52 0h.928l2.272-2.272-2.848-2.88-2.752 2.752 2.4 2.4zm-6.08-.8l1.664-1.632-1.664-1.664v3.296zm20.544-.064v-3.104l-1.568 1.568 1.568 1.536zm-3.968.864h2.752l-1.376-1.376-1.376 1.376zm-15.264 0h2.72l-1.344-1.376-1.376 1.376zm7.744 0h2.496l-1.248-1.248-1.248 1.248zm76.192 1.44v-23.424h23.424v23.424h-23.424zm1.44-10.016l11.872-11.968h-5.76l-6.112 6.144v5.824zm0 7.712l19.648-19.68h-5.728l-13.92 13.984v5.696zm0-15.584l4.096-4.096h-4.096v4.096zm1.216 16.448h5.728l13.6-13.664v-5.696l-19.328 19.36zm7.776 0h5.472l6.08-6.144v-5.504l-11.552 11.648zm7.52 0h4.032v-4.096l-4.032 4.096zm76.703 14.112v-22.4h9.6v22.4h-9.6zm82.932 0h-2.496v-23.648h-12.096v-2.496h14.592V174.8zm-4.992 0h-2.496v-18.656h-7.104v-2.496h9.6V174.8zm72.467-24.384v-12.672h25.344v12.672h-1.632c0-1.536-.288-2.965-.864-4.288a10.447 10.447 0 00-2.368-3.52 10.452 10.452 0 00-3.52-2.368c-1.322-.576-2.752-.864-4.288-.864-1.536 0-2.976.288-4.32.864a10.904 10.904 0 00-3.52 2.368 11.133 11.133 0 00-2.368 3.52c-.554 1.323-.832 2.752-.832 4.288h-1.632zm3.424 0c0-1.28.235-2.475.704-3.584a9.421 9.421 0 011.984-2.944 9.2 9.2 0 012.944-1.984 8.98 8.98 0 013.616-.736c1.28 0 2.475.245 3.584.736a8.743 8.743 0 012.944 1.984 8.729 8.729 0 011.984 2.944 8.753 8.753 0 01.736 3.584h-18.496zm83.538 24.384v-5.6h19.2v5.6h-19.2zm88.788-22.4V130h9.6v22.4h-9.6zm79.187 22.4v-22.4h9.6v22.4h-9.6zm71.22-12.672v-23.424h23.424v23.424h-23.424zm1.44-10.016l11.872-11.968h-5.76l-6.112 6.144v5.824zm0 7.712l19.648-19.68h-5.728l-13.92 13.984v5.696zm0-15.584l4.096-4.096h-4.096v4.096zm1.216 16.448h5.728l13.6-13.664v-5.696l-19.328 19.36zm7.776 0h5.472l6.08-6.144v-5.504l-11.552 11.648zm7.52 0h4.032v-4.096l-4.032 4.096zm87.551-9.536h-12.096V174.8h-2.496v-26.144h14.592v2.496zm0 4.992h-7.104V174.8h-2.496v-21.152h9.6v2.496zm58.74 18.656v-33.6h19.2v33.6h-19.2zM20.174 226.808c-1.537 0-2.976-.288-4.32-.864a11.612 11.612 0 01-3.52-2.368 11.233 11.233 0 01-2.4-3.552c-.576-1.344-.864-2.784-.864-4.32 0-1.536.287-2.965.864-4.288a11.507 11.507 0 012.368-3.552 11.233 11.233 0 013.552-2.4c1.344-.576 2.784-.864 4.32-.864a10.863 10.863 0 017.84 3.264 10.866 10.866 0 013.264 7.84c0 1.536-.288 2.976-.864 4.32a10.802 10.802 0 01-2.369 3.552 11.113 11.113 0 01-3.52 2.368c-1.343.576-2.794.864-4.351.864zm-4.16-8.64c.682 0 1.258-.245 1.727-.736.491-.491.736-1.067.736-1.728 0-.683-.245-1.259-.736-1.728a2.297 2.297 0 00-1.727-.736c-.662 0-1.238.245-1.728.736a2.297 2.297 0 00-.736 1.728c0 .661.245 1.237.736 1.728.49.491 1.066.736 1.728.736zm8.32 0c.682 0 1.258-.245 1.727-.736.491-.491.736-1.067.736-1.728 0-.683-.245-1.259-.736-1.728a2.297 2.297 0 00-1.727-.736c-.662 0-1.238.245-1.729.736a2.297 2.297 0 00-.736 1.728c0 .661.246 1.237.736 1.728.491.491 1.067.736 1.729.736zm78.172 21.632v-22.4h9.6v22.4h-9.6zm69.588 0v-22.4h19.2v22.4h-19.2zm77.939-23.648v-2.496h21.696v2.496h-21.696zm21.696 4.992h-7.104V239.8h-2.496v-21.152h9.6v2.496zM259.633 239.8h-2.496v-18.656h-7.104v-2.496h9.6V239.8zm70.836-39.2V195h19.2v5.6h-19.2zM423 239.8h-2.496v-23.648h-12.096v-2.496H423V239.8zm-4.992 0h-2.496v-18.656h-7.104v-2.496h9.6V239.8zm75.7-16.48v-9.408h9.472v9.408h-9.472zm4.736-.384c.618 0 1.194-.107 1.728-.32a4.043 4.043 0 001.376-.896c.384-.384.682-.843.896-1.376a4.251 4.251 0 00.352-1.728c0-.619-.118-1.195-.352-1.728a4.058 4.058 0 00-.896-1.376 4.043 4.043 0 00-1.376-.896 4.621 4.621 0 00-1.728-.32c-.619 0-1.195.107-1.728.32a4.033 4.033 0 00-1.376.896 4.459 4.459 0 00-.928 1.376 4.594 4.594 0 00-.32 1.728c0 .619.106 1.195.32 1.728.234.533.544.992.928 1.376.384.384.842.683 1.376.896.533.213 1.109.32 1.728.32zm71.763.864v-14.72h14.848v14.72h-14.848zm7.424-.128c1.067 0 2.048-.181 2.944-.544a6.853 6.853 0 002.304-1.504 7.28 7.28 0 001.504-2.304 7.596 7.596 0 00.544-2.88 7.357 7.357 0 00-.544-2.848 6.838 6.838 0 00-1.504-2.304 6.626 6.626 0 00-2.304-1.536c-.896-.363-1.877-.544-2.944-.544-1.066 0-2.048.181-2.944.544a6.626 6.626 0 00-2.304 1.536 6.853 6.853 0 00-1.504 2.304 7.376 7.376 0 00-.544 2.848c0 1.024.182 1.984.544 2.88a7.297 7.297 0 001.504 2.304 6.853 6.853 0 002.304 1.504c.896.363 1.878.544 2.944.544zm0-1.568a5.82 5.82 0 01-2.208-.416 5.33 5.33 0 01-1.728-1.152 5.939 5.939 0 01-1.12-1.792 6.238 6.238 0 01-.416-2.304c0-.832.139-1.589.416-2.272a5.463 5.463 0 011.12-1.792 5.099 5.099 0 011.728-1.184 5.82 5.82 0 012.208-.416c.79 0 1.515.139 2.176.416a4.704 4.704 0 011.728 1.184 5.178 5.178 0 011.152 1.792c.278.683.416 1.44.416 2.272 0 .832-.138 1.6-.416 2.304a5.602 5.602 0 01-1.152 1.792 4.898 4.898 0 01-1.728 1.152 5.574 5.574 0 01-2.176.416zm69.588 17.696V195h9.6v22.4h9.6v22.4h-19.2zm80.819-11.712v-12.672h1.632c0 1.536.278 2.976.832 4.32a11.627 11.627 0 002.368 3.52 11.62 11.62 0 003.52 2.368c1.344.555 2.784.832 4.32.832 1.536 0 2.966-.277 4.288-.832a11.106 11.106 0 003.52-2.368 10.878 10.878 0 002.368-3.52c.576-1.344.864-2.784.864-4.32h1.632v12.672h-25.344zm12.672-3.424a9.345 9.345 0 01-3.616-.704 9.958 9.958 0 01-2.944-1.984 9.945 9.945 0 01-1.984-2.944 9.345 9.345 0 01-.704-3.616h18.496a8.98 8.98 0 01-.736 3.616 9.173 9.173 0 01-1.984 2.944 9.421 9.421 0 01-2.944 1.984c-1.109.469-2.304.704-3.584.704zM815 239.8V195h9.6v22.4h9.6v22.4H815zm98.388-22.4h-9.6v22.4h-9.6V195h19.2v22.4zm59.987 22.4V195h9.6v22.4h9.6v22.4h-19.2zM54.651 281.152H42.555V304.8H40.06v-26.144h14.592v2.496zm0 4.992h-7.104V304.8h-2.496v-21.152h9.6v2.496zm71.476 5.664c-1.536 0-2.976-.288-4.32-.864a11.608 11.608 0 01-3.52-2.368 11.233 11.233 0 01-2.4-3.552c-.576-1.344-.864-2.784-.864-4.32 0-1.536.288-2.965.864-4.288a11.501 11.501 0 012.368-3.552 11.233 11.233 0 013.552-2.4c1.344-.576 2.784-.864 4.32-.864a10.866 10.866 0 017.84 3.264 10.866 10.866 0 013.264 7.84c0 1.536-.288 2.976-.864 4.32a10.806 10.806 0 01-2.368 3.552 11.117 11.117 0 01-3.52 2.368c-1.344.576-2.795.864-4.352.864zm-4.16-8.64c.682 0 1.258-.245 1.728-.736.49-.491.736-1.067.736-1.728a2.3 2.3 0 00-.736-1.728 2.299 2.299 0 00-1.728-.736c-.662 0-1.238.245-1.728.736a2.296 2.296 0 00-.736 1.728c0 .661.245 1.237.736 1.728.49.491 1.066.736 1.728.736zm8.32 0c.682 0 1.258-.245 1.728-.736.49-.491.736-1.067.736-1.728a2.3 2.3 0 00-.736-1.728 2.299 2.299 0 00-1.728-.736c-.662 0-1.238.245-1.728.736a2.296 2.296 0 00-.736 1.728c0 .661.245 1.237.736 1.728.49.491 1.066.736 1.728.736zM208.459 260h9.6v22.4h-9.6V260zm-9.6 22.4h9.6v22.4h-9.6v-22.4zm91.924 9.408c-1.536 0-2.976-.288-4.32-.864a11.608 11.608 0 01-3.52-2.368 11.233 11.233 0 01-2.4-3.552c-.576-1.344-.864-2.784-.864-4.32 0-1.536.288-2.965.864-4.288a11.501 11.501 0 012.368-3.552 11.233 11.233 0 013.552-2.4c1.344-.576 2.784-.864 4.32-.864a10.866 10.866 0 017.84 3.264 10.866 10.866 0 013.264 7.84c0 1.536-.288 2.976-.864 4.32a11.233 11.233 0 01-2.4 3.552 11.117 11.117 0 01-3.52 2.368c-1.344.576-2.784.864-4.32.864zm0-2.304c1.237 0 2.389-.224 3.456-.672a8.759 8.759 0 002.784-1.92 8.816 8.816 0 001.888-2.784 8.753 8.753 0 00.672-3.424 8.493 8.493 0 00-.704-3.456 8.348 8.348 0 00-1.888-2.784 8.711 8.711 0 00-2.816-1.888c-1.045-.448-2.176-.672-3.392-.672a8.493 8.493 0 00-3.456.704 8.711 8.711 0 00-2.816 1.888 8.988 8.988 0 00-1.856 2.816c-.448 1.045-.672 2.176-.672 3.392 0 1.237.224 2.389.672 3.456a9.153 9.153 0 001.92 2.816 9.102 9.102 0 002.784 1.856 8.753 8.753 0 003.424.672zm4.16-6.336a2.421 2.421 0 01-1.728-.704 2.4 2.4 0 01-.736-1.76c0-.683.245-1.259.736-1.728.491-.491 1.067-.736 1.728-.736.683 0 1.259.245 1.728.736.491.469.736 1.045.736 1.728 0 .661-.245 1.237-.736 1.728a2.296 2.296 0 01-1.728.736zM376.86 304.8h-2.496v-23.648h-12.096v-2.496h14.592V304.8zm-4.992 0h-2.496v-18.656h-7.104v-2.496h9.6V304.8zm70.835 0v-22.4h9.6v22.4h-9.6zm80.82-12.672v-23.424h23.424v23.424h-23.424zm21.984-2.304v-5.696l-13.92-13.984h-5.728l19.648 19.68zm0-7.712v-5.824l-6.112-6.144h-5.76l11.872 11.968zm0-7.872v-4.096h-4.096l4.096 4.096zm-6.944 16.448h5.728l-19.328-19.36v5.696l13.6 13.664zm-7.52 0h5.472l-11.552-11.648v5.504l6.08 6.144zm-6.08 0h4.032l-4.032-4.096v4.096zm83.615 14.112v-22.4h9.6v22.4h-9.6zm91.924-12.992c-1.536 0-2.976-.288-4.32-.864a11.608 11.608 0 01-3.52-2.368 11.233 11.233 0 01-2.4-3.552c-.576-1.344-.864-2.784-.864-4.32 0-1.536.288-2.965.864-4.288a11.501 11.501 0 012.368-3.552 11.233 11.233 0 013.552-2.4c1.344-.576 2.784-.864 4.32-.864a10.866 10.866 0 017.84 3.264 10.866 10.866 0 013.264 7.84c0 1.536-.288 2.976-.864 4.32a10.806 10.806 0 01-2.368 3.552 11.117 11.117 0 01-3.52 2.368c-1.344.576-2.795.864-4.352.864zm-4.16-8.64c.682 0 1.258-.245 1.728-.736.49-.491.736-1.067.736-1.728a2.3 2.3 0 00-.736-1.728 2.299 2.299 0 00-1.728-.736c-.662 0-1.238.245-1.728.736a2.296 2.296 0 00-.736 1.728c0 .661.245 1.237.736 1.728.49.491 1.066.736 1.728.736zm8.32 0c.682 0 1.258-.245 1.728-.736.49-.491.736-1.067.736-1.728a2.3 2.3 0 00-.736-1.728 2.299 2.299 0 00-1.728-.736c-.662 0-1.238.245-1.728.736a2.296 2.296 0 00-.736 1.728c0 .661.245 1.237.736 1.728.49.491 1.066.736 1.728.736zm70.204 8.96v-23.424h23.424v23.424h-23.424zm21.984-2.304v-5.696l-13.92-13.984h-5.728l19.648 19.68zm0-7.712v-5.824l-6.112-6.144h-5.76l11.872 11.968zm0-7.872v-4.096h-4.096l4.096 4.096zm-6.944 16.448h5.728l-19.328-19.36v5.696l13.6 13.664zm-7.52 0h5.472l-11.552-11.648v5.504l6.08 6.144zm-6.08 0h4.032l-4.032-4.096v4.096zm88.48-2.368v-9.408h9.472v9.408h-9.472zm4.736-.384c.619 0 1.195-.107 1.728-.32a4.043 4.043 0 001.376-.896c.384-.384.683-.843.896-1.376a4.235 4.235 0 00.352-1.728c0-.619-.117-1.195-.352-1.728a4.043 4.043 0 00-.896-1.376 4.043 4.043 0 00-1.376-.896 4.614 4.614 0 00-1.728-.32c-.619 0-1.195.107-1.728.32a4.043 4.043 0 00-1.376.896 4.476 4.476 0 00-.928 1.376 4.614 4.614 0 00-.32 1.728c0 .619.107 1.195.32 1.728.235.533.544.992.928 1.376.384.384.843.683 1.376.896.533.213 1.109.32 1.728.32zm71.219 4.192v-23.424h23.424v23.424h-23.424zm11.744-20.288l1.664-1.696h-3.296l1.632 1.696zm-3.872 3.872l2.848-2.848-2.656-2.72h-.416l-2.688 2.688 2.912 2.88zm-3.904-3.904l1.632-1.664h-3.264l1.632 1.664zm11.648 3.904l2.88-2.88-2.624-2.688h-.448l-2.656 2.72 2.848 2.848zm3.904-3.904l1.632-1.664h-3.264l1.632 1.664zm-18.08 2.496l1.504-1.472-1.504-1.504v2.976zm20.544-.064v-2.848l-1.408 1.44 1.408 1.408zm-17.984 5.344l2.848-2.848-2.88-2.848-2.528 2.496v.64l2.56 2.56zm15.456 0l2.528-2.496v-.8l-2.464-2.4-2.88 2.88 2.816 2.816zm-7.712 0l2.88-2.848-2.88-2.848-2.848 2.848 2.848 2.848zm-3.872 3.872l2.848-2.848-2.848-2.848-2.848 2.848 2.848 2.848zm7.744 0l2.848-2.848-2.848-2.816-2.848 2.848 2.848 2.816zm-14.176-1.28l1.536-1.568-1.536-1.568v3.136zm20.544-.064v-2.976l-1.504 1.472 1.504 1.504zm-17.856 5.12l2.72-2.752-2.848-2.848-2.56 2.592v.32l2.688 2.688zm15.264 0l2.592-2.624v-.48l-2.528-2.496-2.816 2.848 2.752 2.752zm-7.648.16l2.88-2.912-2.88-2.816-2.848 2.88 2.848 2.848zm3.296 3.296h.928l2.4-2.4-2.752-2.784-2.848 2.912 2.272 2.272zm-7.52 0h.928l2.272-2.272-2.848-2.88-2.752 2.752 2.4 2.4zm-6.08-.8l1.664-1.632-1.664-1.664v3.296zm20.544-.064v-3.104l-1.568 1.568 1.568 1.536zm-3.968.864h2.752l-1.376-1.376-1.376 1.376zm-15.264 0h2.72l-1.344-1.376-1.376 1.376zm7.744 0h2.496l-1.248-1.248-1.248 1.248zm-462.949 66.44v-23.424h23.424v23.424h-23.424zm1.44-10.016l11.872-11.968h-5.76l-6.112 6.144v5.824zm0 7.712l19.648-19.68h-5.728l-13.92 13.984v5.696zm0-15.584l4.096-4.096h-4.096v4.096zm1.216 16.448h5.728l13.6-13.664v-5.696l-19.328 19.36zm7.776 0h5.472l6.08-6.144v-5.504l-11.552 11.648zm7.52 0h4.032v-4.096l-4.032 4.096z" fill="#F68E88"/>
    <path d="M381.286 129h4.113v-10.614c0-2.147 1.432-3.602 3.205-3.602 1.738 0 2.932 1.171 2.932 2.966V129h4.034v-10.886c0-1.966 1.17-3.33 3.159-3.33 1.659 0 2.977.977 2.977 3.136V129h4.125v-11.716c0-3.898-2.25-5.966-5.455-5.966-2.534 0-4.465 1.25-5.238 3.193h-.182c-.67-1.977-2.364-3.193-4.716-3.193-2.341 0-4.091 1.205-4.818 3.193h-.205v-2.966h-3.931V129zm28.718 0h4.114v-17.455h-4.114V129zm2.068-19.932c1.307 0 2.375-1 2.375-2.227 0-1.239-1.068-2.239-2.375-2.239-1.318 0-2.386 1-2.386 2.239 0 1.227 1.068 2.227 2.386 2.227zm9.64 2.477h-4.364l5.182 8.728-5.318 8.727h4.363l3.659-6.284 3.694 6.284h4.329l-5.352-8.727 5.261-8.728h-4.352l-3.58 6.444-3.522-6.444zm14.636 24h4.114v-9.295h.17c.648 1.273 2 3.057 5 3.057 4.114 0 7.193-3.262 7.193-9.012 0-5.818-3.17-8.977-7.204-8.977-3.08 0-4.364 1.852-4.989 3.114h-.239v-2.887h-4.045v24zm4.034-15.272c0-3.387 1.455-5.58 4.102-5.58 2.739 0 4.148 2.33 4.148 5.58 0 3.272-1.432 5.659-4.148 5.659-2.625 0-4.102-2.273-4.102-5.659zm20.989 9.079c2.738 0 4.375-1.284 5.125-2.75h.136V129h3.955v-11.682c0-4.613-3.762-6-7.091-6-3.671 0-6.489 1.637-7.398 4.818l3.841.546c.409-1.193 1.568-2.216 3.579-2.216 1.91 0 2.955.977 2.955 2.693v.068c0 1.182-1.239 1.239-4.318 1.568-3.387.364-6.625 1.375-6.625 5.307 0 3.432 2.511 5.25 5.841 5.25zm1.068-3.022c-1.716 0-2.943-.785-2.943-2.296 0-1.579 1.375-2.239 3.216-2.5 1.079-.148 3.238-.42 3.772-.852v2.057c0 1.943-1.568 3.591-4.045 3.591zm16.398-7.557c0-2.523 1.522-3.978 3.693-3.978 2.125 0 3.398 1.398 3.398 3.728V129h4.113v-11.114c.012-4.181-2.375-6.568-5.977-6.568-2.614 0-4.409 1.25-5.205 3.193h-.204v-2.966h-3.932V129h4.114v-10.227zm23.113 10.568c4.068 0 6.864-1.989 7.591-5.023l-3.841-.432c-.557 1.478-1.92 2.25-3.693 2.25-2.659 0-4.42-1.75-4.454-4.738h12.159v-1.262c0-6.125-3.682-8.818-7.978-8.818-5 0-8.261 3.671-8.261 9.057 0 5.477 3.216 8.966 8.477 8.966zm-4.386-10.716c.125-2.227 1.773-4.102 4.227-4.102 2.364 0 3.955 1.727 3.977 4.102h-8.204zm19.741-12.898h-4.113V129h4.113v-23.273zm14.81 11.887h-10.477V121h10.477v-3.386zm13.168-6.069h-3.625v-1.375c0-1.363.568-2.125 2.102-2.125.648 0 1.193.148 1.534.25l.83-3.181c-.535-.182-1.705-.478-3.125-.478-3.035 0-5.455 1.739-5.455 5.262v1.647h-2.58v3.182h2.58V129h4.114v-14.273h3.625v-3.182zM548.504 129h4.114v-17.455h-4.114V129zm2.068-19.932c1.307 0 2.375-1 2.375-2.227 0-1.239-1.068-2.239-2.375-2.239-1.318 0-2.386 1-2.386 2.239 0 1.227 1.068 2.227 2.386 2.227zm13.867 26.773c4.716 0 8.193-2.159 8.193-6.557v-17.739h-4.057v2.887h-.227c-.625-1.262-1.932-3.114-5.011-3.114-4.034 0-7.205 3.159-7.205 8.898 0 5.693 3.171 8.534 7.193 8.534 2.989 0 4.387-1.602 5.023-2.886h.205v3.306c0 2.5-1.705 3.557-4.046 3.557-2.477 0-3.568-1.17-4.068-2.125l-3.705.898c.75 2.375 3.262 4.341 7.705 4.341zm.034-10.318c-2.716 0-4.148-2.114-4.148-5.33 0-3.17 1.409-5.5 4.148-5.5 2.648 0 4.102 2.193 4.102 5.5 0 3.33-1.477 5.33-4.102 5.33zM576.848 129h4.114v-10.614c0-2.147 1.431-3.602 3.204-3.602 1.739 0 2.932 1.171 2.932 2.966V129h4.034v-10.886c0-1.966 1.171-3.33 3.159-3.33 1.659 0 2.977.977 2.977 3.136V129h4.125v-11.716c0-3.898-2.25-5.966-5.454-5.966-2.534 0-4.466 1.25-5.239 3.193h-.182c-.67-1.977-2.363-3.193-4.715-3.193-2.341 0-4.091 1.205-4.819 3.193h-.204v-2.966h-3.932V129zm33.741.352c2.739 0 4.375-1.284 5.125-2.75h.137V129h3.954v-11.682c0-4.613-3.761-6-7.091-6-3.67 0-6.488 1.637-7.397 4.818l3.841.546c.409-1.193 1.568-2.216 3.579-2.216 1.909 0 2.955.977 2.955 2.693v.068c0 1.182-1.239 1.239-4.318 1.568-3.387.364-6.625 1.375-6.625 5.307 0 3.432 2.511 5.25 5.84 5.25zm1.069-3.022c-1.716 0-2.944-.785-2.944-2.296 0-1.579 1.375-2.239 3.216-2.5 1.08-.148 3.239-.42 3.773-.852v2.057c0 1.943-1.568 3.591-4.045 3.591zm-422.762 44.397V194h2.637v-17.682h.227L199.033 194h2.545l7.273-17.682h.227V194h2.636v-23.273h-3.363l-7.909 19.318h-.273l-7.909-19.318h-3.364zM217.001 194h2.682v-17.455h-2.682V194zm1.364-20.364c1.046 0 1.909-.818 1.909-1.818s-.863-1.818-1.909-1.818c-1.045 0-1.909.818-1.909 1.818s.864 1.818 1.909 1.818zm8.23 2.909h-3.091l5.546 8.728-5.546 8.727h3.091l4.182-6.773 4.182 6.773h3.091l-5.637-8.727 5.637-8.728h-3.091l-4.182 7.137-4.182-7.137zm15.281 24h2.682v-9.227h.228c.59.955 1.727 3.046 5.09 3.046 4.364 0 7.41-3.5 7.41-9.046 0-5.5-3.046-9-7.455-9-3.409 0-4.455 2.091-5.045 3h-.319v-2.773h-2.591v24zm2.637-15.272c0-3.909 1.727-6.546 5-6.546 3.409 0 5.091 2.864 5.091 6.546 0 3.727-1.728 6.682-5.091 6.682-3.227 0-5-2.728-5-6.682zm22 9.136c3.045 0 4.636-1.636 5.182-2.773h.136V194h2.682v-11.5c0-5.545-4.227-6.182-6.455-6.182-2.636 0-5.636.909-7 4.091l2.546.909c.591-1.273 1.988-2.636 4.545-2.636 2.466 0 3.682 1.307 3.682 3.545v.091c0 1.296-1.318 1.182-4.5 1.591-3.239.421-6.773 1.136-6.773 5.136 0 3.41 2.637 5.364 5.955 5.364zm.409-2.409c-2.136 0-3.682-.955-3.682-2.818 0-2.046 1.864-2.682 3.955-2.955 1.136-.136 4.181-.454 4.636-1v2.455c0 2.182-1.727 4.318-4.909 4.318zm15.167-8.5c0-3.045 1.887-4.773 4.455-4.773 2.489 0 4 1.625 4 4.364V194h2.682v-11.091c0-4.454-2.375-6.591-5.909-6.591-2.637 0-4.273 1.182-5.091 2.955h-.227v-2.728h-2.591V194h2.681v-10.5zm23.356 10.864c3.545 0 6.136-1.773 6.954-4.409l-2.591-.728c-.682 1.818-2.261 2.728-4.363 2.728-3.148 0-5.319-2.035-5.444-5.773h12.671v-1.137c0-6.5-3.864-8.727-7.5-8.727-4.727 0-7.864 3.727-7.864 9.091 0 5.364 3.091 8.955 8.137 8.955zm-5.444-10.5c.182-2.716 2.103-5.137 5.171-5.137 2.909 0 4.773 2.182 4.773 5.137h-9.944zm19.432-13.137h-2.682V194h2.682v-23.273zm21.003 23.637c3.864 0 6.409-2.364 6.864-5.455h-2.682c-.5 1.909-2.091 3.046-4.182 3.046-3.182 0-5.227-2.637-5.227-6.682 0-3.955 2.091-6.546 5.227-6.546 2.364 0 3.773 1.455 4.182 3.046h2.682c-.455-3.273-3.228-5.455-6.909-5.455-4.728 0-7.864 3.727-7.864 9.046 0 5.227 3 9 7.909 9zm13.466-23.637h-2.682V194h2.682v-23.273zM358.814 194h2.682v-17.455h-2.682V194zm1.364-20.364c1.045 0 1.909-.818 1.909-1.818s-.864-1.818-1.909-1.818c-1.046 0-1.91.818-1.91 1.818s.864 1.818 1.91 1.818zm13.548 20.728c3.545 0 6.136-1.773 6.954-4.409l-2.591-.728c-.681 1.818-2.261 2.728-4.363 2.728-3.148 0-5.318-2.035-5.443-5.773h12.67v-1.137c0-6.5-3.864-8.727-7.5-8.727-4.727 0-7.864 3.727-7.864 9.091 0 5.364 3.091 8.955 8.137 8.955zm-5.443-10.5c.181-2.716 2.102-5.137 5.17-5.137 2.909 0 4.773 2.182 4.773 5.137h-9.943zm19.431-.364c0-3.045 1.887-4.773 4.455-4.773 2.489 0 4 1.625 4 4.364V194h2.682v-11.091c0-4.454-2.375-6.591-5.909-6.591-2.637 0-4.273 1.182-5.091 2.955h-.227v-2.728h-2.591V194h2.681v-10.5zm23.628-6.955h-3.727v-4.181h-2.682v4.181h-2.636v2.273h2.636v10.909c0 3.046 2.455 4.5 4.728 4.5 1 0 1.636-.182 2-.318l-.546-2.409c-.227.045-.591.136-1.182.136-1.182 0-2.318-.363-2.318-2.636v-10.182h3.727v-2.273zm13.034 24h2.682v-9.227h.228c.59.955 1.727 3.046 5.09 3.046 4.364 0 7.41-3.5 7.41-9.046 0-5.5-3.046-9-7.455-9-3.409 0-4.455 2.091-5.045 3h-.319v-2.773h-2.591v24zm2.637-15.272c0-3.909 1.727-6.546 5-6.546 3.409 0 5.091 2.864 5.091 6.546 0 3.727-1.728 6.682-5.091 6.682-3.227 0-5-2.728-5-6.682zm22 9.136c3.045 0 4.636-1.636 5.182-2.773h.136V194h2.682v-11.5c0-5.545-4.227-6.182-6.455-6.182-2.636 0-5.636.909-7 4.091l2.546.909c.591-1.273 1.988-2.636 4.545-2.636 2.466 0 3.682 1.307 3.682 3.545v.091c0 1.296-1.318 1.182-4.5 1.591-3.239.421-6.773 1.136-6.773 5.136 0 3.41 2.637 5.364 5.955 5.364zm.409-2.409c-2.136 0-3.682-.955-3.682-2.818 0-2.046 1.864-2.682 3.955-2.955 1.136-.136 4.181-.454 4.636-1v2.455c0 2.182-1.727 4.318-4.909 4.318zm20.077-15.455h-3.728v-4.181h-2.682v4.181h-2.636v2.273h2.636v10.909c0 3.046 2.455 4.5 4.728 4.5 1 0 1.636-.182 2-.318l-.546-2.409c-.227.045-.591.136-1.182.136-1.181 0-2.318-.363-2.318-2.636v-10.182h3.728v-2.273zm10.937 17.819c3.864 0 6.409-2.364 6.864-5.455h-2.682c-.5 1.909-2.091 3.046-4.182 3.046-3.182 0-5.227-2.637-5.227-6.682 0-3.955 2.091-6.546 5.227-6.546 2.364 0 3.773 1.455 4.182 3.046h2.682c-.455-3.273-3.228-5.455-6.909-5.455-4.728 0-7.864 3.727-7.864 9.046 0 5.227 3 9 7.909 9zm13.466-10.864c0-3.045 1.943-4.773 4.591-4.773 2.523 0 4.045 1.591 4.045 4.364V194h2.682v-11.091c0-4.489-2.386-6.591-5.954-6.591-2.75 0-4.319 1.148-5.137 2.955h-.227v-8.546h-2.682V194h2.682v-10.5zm23.543 10.864c3.545 0 6.136-1.773 6.954-4.409l-2.591-.728c-.682 1.818-2.261 2.728-4.363 2.728-3.148 0-5.319-2.035-5.444-5.773h12.671v-1.137c0-6.5-3.864-8.727-7.5-8.727-4.727 0-7.864 3.727-7.864 9.091 0 5.364 3.091 8.955 8.137 8.955zm-5.444-10.5c.182-2.716 2.103-5.137 5.171-5.137 2.909 0 4.773 2.182 4.773 5.137h-9.944zm23.341 10.5c3.364 0 4.5-2.091 5.091-3.046h.318V194h2.591v-23.273h-2.681v8.591h-.228c-.591-.909-1.636-3-5.045-3-4.409 0-7.455 3.5-7.455 9 0 5.546 3.046 9.046 7.409 9.046zm.364-2.409c-3.364 0-5.091-2.955-5.091-6.682 0-3.682 1.682-6.546 5.091-6.546 3.273 0 5 2.637 5 6.546 0 3.954-1.773 6.682-5 6.682zm29.693-15.41h-3.909v-1.772c0-1.728.727-2.637 2.5-2.637.773 0 1.227.182 1.5.273l.773-2.318c-.409-.182-1.227-.455-2.546-.455-2.5 0-4.909 1.5-4.909 4.5v2.409h-2.818v2.273h2.818V194h2.682v-15.182h3.909v-2.273zm10.131 17.819c4.727 0 7.909-3.591 7.909-9 0-5.455-3.182-9.046-7.909-9.046s-7.909 3.591-7.909 9.046c0 5.409 3.182 9 7.909 9zm0-2.409c-3.591 0-5.227-3.091-5.227-6.591s1.636-6.637 5.227-6.637 5.227 3.137 5.227 6.637c0 3.5-1.636 6.591-5.227 6.591zM587.533 194h2.681v-11.045c0-2.364 1.864-4.091 4.41-4.091.715 0 1.454.136 1.636.181v-2.727a25.53 25.53 0 00-1.409-.045c-2.091 0-3.909 1.182-4.546 2.909h-.181v-2.637h-2.591V194zm21.27 0h2.818v-10.409h10.091v-2.5h-10.091v-7.864h11.136v-2.5h-13.954V194zm18.417 0h2.682v-17.455h-2.682V194zm1.364-20.364c1.045 0 1.909-.818 1.909-1.818s-.864-1.818-1.909-1.818c-1.046 0-1.909.818-1.909 1.818s.863 1.818 1.909 1.818zm13.275 27.273c4.182 0 7.546-1.909 7.546-6.409v-17.955h-2.591v2.773h-.273c-.591-.909-1.682-3-5.091-3-4.409 0-7.454 3.5-7.454 8.864 0 5.454 3.182 8.545 7.409 8.545 3.409 0 4.5-2 5.091-2.954h.227v3.545c0 2.909-2.045 4.227-4.864 4.227-3.17 0-4.284-1.67-5-2.636l-2.136 1.5c1.091 1.83 3.239 3.5 7.136 3.5zm-.091-9.591c-3.363 0-5.09-2.545-5.09-6.182 0-3.545 1.681-6.409 5.09-6.409 3.273 0 5 2.637 5 6.409 0 3.864-1.772 6.182-5 6.182zM654.314 194h2.682v-10.909c0-2.557 1.863-4.364 3.954-4.364 2.034 0 3.455 1.33 3.455 3.318V194h2.727v-11.364c0-2.25 1.409-3.909 3.864-3.909 1.909 0 3.545 1.012 3.545 3.591V194h2.682v-11.682c0-4.102-2.205-6-5.318-6-2.5 0-4.33 1.148-5.227 2.955h-.182c-.864-1.864-2.387-2.955-4.682-2.955-2.273 0-3.955 1.091-4.682 2.955h-.227v-2.728h-2.591V194zm32.949.409c3.045 0 4.636-1.636 5.182-2.773h.136V194h2.682v-11.5c0-5.545-4.227-6.182-6.455-6.182-2.636 0-5.636.909-7 4.091l2.546.909c.591-1.273 1.988-2.636 4.545-2.636 2.466 0 3.682 1.307 3.682 3.545v.091c0 1.296-1.318 1.182-4.5 1.591-3.239.421-6.773 1.136-6.773 5.136 0 3.41 2.637 5.364 5.955 5.364zm.409-2.409c-2.136 0-3.682-.955-3.682-2.818 0-2.046 1.864-2.682 3.955-2.955 1.136-.136 4.181-.454 4.636-1v2.455c0 2.182-1.727 4.318-4.909 4.318zm21.486 8.545h2.681v-9.227h.228c.591.955 1.727 3.046 5.091 3.046 4.363 0 7.409-3.5 7.409-9.046 0-5.5-3.046-9-7.455-9-3.409 0-4.454 2.091-5.045 3h-.318v-2.773h-2.591v24zm2.636-15.272c0-3.909 1.727-6.546 5-6.546 3.409 0 5.091 2.864 5.091 6.546 0 3.727-1.727 6.682-5.091 6.682-3.227 0-5-2.728-5-6.682zm19.545-14.546h-2.681V194h2.681v-23.273zm15.912 16.137c0 3.272-2.5 4.772-4.5 4.772-2.227 0-3.818-1.636-3.818-4.181v-10.91h-2.682v11.091c0 4.455 2.364 6.591 5.637 6.591 2.636 0 4.363-1.409 5.182-3.182h.181V194h2.682v-17.455h-2.682v10.319zm14.64 14.045c4.181 0 7.545-1.909 7.545-6.409v-17.955h-2.591v2.773h-.273c-.59-.909-1.681-3-5.09-3-4.41 0-7.455 3.5-7.455 8.864 0 5.454 3.182 8.545 7.409 8.545 3.409 0 4.5-2 5.091-2.954h.227v3.545c0 2.909-2.045 4.227-4.863 4.227-3.171 0-4.284-1.67-5-2.636l-2.137 1.5c1.091 1.83 3.239 3.5 7.137 3.5zm-.091-9.591c-3.364 0-5.091-2.545-5.091-6.182 0-3.545 1.682-6.409 5.091-6.409 3.272 0 5 2.637 5 6.409 0 3.864-1.773 6.182-5 6.182zM774.345 194h2.682v-17.455h-2.682V194zm1.364-20.364c1.045 0 1.909-.818 1.909-1.818s-.864-1.818-1.909-1.818c-1.046 0-1.909.818-1.909 1.818s.863 1.818 1.909 1.818zm8.912 9.864c0-3.045 1.886-4.773 4.454-4.773 2.489 0 4 1.625 4 4.364V194h2.682v-11.091c0-4.454-2.375-6.591-5.909-6.591-2.636 0-4.273 1.182-5.091 2.955h-.227v-2.728h-2.591V194h2.682v-10.5zm28.4-3.045c-.841-2.478-2.727-4.137-6.182-4.137-3.681 0-6.409 2.091-6.409 5.046 0 2.409 1.432 4.022 4.637 4.772l2.909.682c1.761.409 2.591 1.25 2.591 2.455 0 1.5-1.591 2.727-4.091 2.727-2.193 0-3.568-.943-4.046-2.818l-2.545.636c.625 2.966 3.068 4.546 6.636 4.546 4.057 0 6.818-2.216 6.818-5.228 0-2.431-1.522-3.966-4.636-4.727l-2.591-.636c-2.068-.512-3-1.205-3-2.546 0-1.5 1.591-2.591 3.727-2.591 2.341 0 3.307 1.296 3.773 2.5l2.409-.681z" fill="#3A3A3A"/>
  </g>
  <defs>
    <clipPath id="clip0">
      <path fill="#fff" d="M0 0h1000v300H0z"/>
    </clipPath>
  </defs>
</svg>
